<svg id="visual" viewBox="0 0 300 100" width="300" height="100" xmlns="http://www.w3.org/2000/svg" xmlns:xlink="http://www.w3.org/1999/xlink" version="1.1"><path d="M0 27L4.5 24.2C9 21.3 18 15.7 27.2 14.5C36.3 13.3 45.7 16.7 54.8 18.8C64 21 73 22 82 22.2C91 22.3 100 21.7 109 21.5C118 21.3 127 21.7 136.2 20.8C145.3 20 154.7 18 163.8 16.3C173 14.7 182 13.3 191 13.2C200 13 209 14 218 16C227 18 236 21 245.2 20.3C254.3 19.7 263.7 15.3 272.8 14.5C282 13.7 291 16.3 295.5 17.7L300 19L300 0L295.5 0C291 0 282 0 272.8 0C263.7 0 254.3 0 245.2 0C236 0 227 0 218 0C209 0 200 0 191 0C182 0 173 0 163.8 0C154.7 0 145.3 0 136.2 0C127 0 118 0 109 0C100 0 91 0 82 0C73 0 64 0 54.8 0C45.7 0 36.3 0 27.2 0C18 0 9 0 4.5 0L0 0Z" fill="#001b98"></path><path d="M0 66L4.5 62C9 58 18 50 27.2 48.7C36.3 47.3 45.7 52.7 54.8 53.7C64 54.7 73 51.3 82 49.3C91 47.3 100 46.7 109 45.8C118 45 127 44 136.2 41.3C145.3 38.7 154.7 34.3 163.8 36.5C173 38.7 182 47.3 191 49.7C200 52 209 48 218 45C227 42 236 40 245.2 41.8C254.3 43.7 263.7 49.3 272.8 51.7C282 54 291 53 295.5 52.5L300 52L300 17L295.5 15.7C291 14.3 282 11.7 272.8 12.5C263.7 13.3 254.3 17.7 245.2 18.3C236 19 227 16 218 14C209 12 200 11 191 11.2C182 11.3 173 12.7 163.8 14.3C154.7 16 145.3 18 136.2 18.8C127 19.7 118 19.3 109 19.5C100 19.7 91 20.3 82 20.2C73 20 64 19 54.8 16.8C45.7 14.7 36.3 11.3 27.2 12.5C18 13.7 9 19.3 4.5 22.2L0 25Z" fill="#0078ab"></path><path d="M0 76L4.5 73.5C9 71 18 66 27.2 65.3C36.3 64.7 45.7 68.3 54.8 68.8C64 69.3 73 66.7 82 63.7C91 60.7 100 57.3 109 55.7C118 54 127 54 136.2 53.3C145.3 52.7 154.7 51.3 163.8 53.2C173 55 182 60 191 61.3C200 62.7 209 60.3 218 57.7C227 55 236 52 245.2 53.7C254.3 55.3 263.7 61.7 272.8 64C282 66.3 291 64.7 295.5 63.8L300 63L300 50L295.5 50.5C291 51 282 52 272.8 49.7C263.7 47.3 254.3 41.7 245.2 39.8C236 38 227 40 218 43C209 46 200 50 191 47.7C182 45.3 173 36.7 163.8 34.5C154.7 32.3 145.3 36.7 136.2 39.3C127 42 118 43 109 43.8C100 44.7 91 45.3 82 47.3C73 49.3 64 52.7 54.8 51.7C45.7 50.7 36.3 45.3 27.2 46.7C18 48 9 56 4.5 60L0 64Z" fill="#009473"></path><path d="M0 95L4.5 94.3C9 93.7 18 92.3 27.2 91.7C36.3 91 45.7 91 54.8 91.3C64 91.7 73 92.3 82 92.7C91 93 100 93 109 91.8C118 90.7 127 88.3 136.2 87.8C145.3 87.3 154.7 88.7 163.8 88.3C173 88 182 86 191 85.8C200 85.7 209 87.3 218 88.2C227 89 236 89 245.2 88.2C254.3 87.3 263.7 85.7 272.8 86.3C282 87 291 90 295.5 91.5L300 93L300 61L295.5 61.8C291 62.7 282 64.3 272.8 62C263.7 59.7 254.3 53.3 245.2 51.7C236 50 227 53 218 55.7C209 58.3 200 60.7 191 59.3C182 58 173 53 163.8 51.2C154.7 49.3 145.3 50.7 136.2 51.3C127 52 118 52 109 53.7C100 55.3 91 58.7 82 61.7C73 64.7 64 67.3 54.8 66.8C45.7 66.3 36.3 62.7 27.2 63.3C18 64 9 69 4.5 71.5L0 74Z" fill="#0078ab"></path><path d="M0 101L4.5 101C9 101 18 101 27.2 101C36.3 101 45.7 101 54.8 101C64 101 73 101 82 101C91 101 100 101 109 101C118 101 127 101 136.2 101C145.3 101 154.7 101 163.8 101C173 101 182 101 191 101C200 101 209 101 218 101C227 101 236 101 245.2 101C254.3 101 263.7 101 272.8 101C282 101 291 101 295.5 101L300 101L300 91L295.5 89.5C291 88 282 85 272.8 84.3C263.7 83.7 254.3 85.3 245.2 86.2C236 87 227 87 218 86.2C209 85.3 200 83.7 191 83.8C182 84 173 86 163.8 86.3C154.7 86.7 145.3 85.3 136.2 85.8C127 86.3 118 88.7 109 89.8C100 91 91 91 82 90.7C73 90.3 64 89.7 54.8 89.3C45.7 89 36.3 89 27.2 89.7C18 90.3 9 91.7 4.5 92.3L0 93Z" fill="#001b98"></path></svg>