<svg id="visual" viewBox="0 0 300 100" width="300" height="100" xmlns="http://www.w3.org/2000/svg" xmlns:xlink="http://www.w3.org/1999/xlink" version="1.1"><rect x="0" y="0" width="300" height="100" fill="#001220"></rect><path d="M0 70L7.2 68.7C14.3 67.3 28.7 64.7 43 62.8C57.3 61 71.7 60 86 61.7C100.3 63.3 114.7 67.7 128.8 68.8C143 70 157 68 171.2 65.8C185.3 63.7 199.7 61.3 214 60.8C228.3 60.3 242.7 61.7 257 63.5C271.3 65.3 285.7 67.7 292.8 68.8L300 70L300 101L292.8 101C285.7 101 271.3 101 257 101C242.7 101 228.3 101 214 101C199.7 101 185.3 101 171.2 101C157 101 143 101 128.8 101C114.7 101 100.3 101 86 101C71.7 101 57.3 101 43 101C28.7 101 14.3 101 7.2 101L0 101Z" fill="#fa7268"></path><path d="M0 75L7.2 75.5C14.3 76 28.7 77 43 76.8C57.3 76.7 71.7 75.3 86 74.3C100.3 73.3 114.7 72.7 128.8 72.2C143 71.7 157 71.3 171.2 70.3C185.3 69.3 199.7 67.7 214 67.7C228.3 67.7 242.7 69.3 257 70.5C271.3 71.7 285.7 72.3 292.8 72.7L300 73L300 101L292.8 101C285.7 101 271.3 101 257 101C242.7 101 228.3 101 214 101C199.7 101 185.3 101 171.2 101C157 101 143 101 128.8 101C114.7 101 100.3 101 86 101C71.7 101 57.3 101 43 101C28.7 101 14.3 101 7.2 101L0 101Z" fill="#ef5f67"></path><path d="M0 83L7.2 82.7C14.3 82.3 28.7 81.7 43 80.2C57.3 78.7 71.7 76.3 86 75.2C100.3 74 114.7 74 128.8 74.3C143 74.7 157 75.3 171.2 75.2C185.3 75 199.7 74 214 75C228.3 76 242.7 79 257 79.3C271.3 79.7 285.7 77.3 292.8 76.2L300 75L300 101L292.8 101C285.7 101 271.3 101 257 101C242.7 101 228.3 101 214 101C199.7 101 185.3 101 171.2 101C157 101 143 101 128.8 101C114.7 101 100.3 101 86 101C71.7 101 57.3 101 43 101C28.7 101 14.3 101 7.2 101L0 101Z" fill="#e34c67"></path><path d="M0 87L7.2 86.2C14.3 85.3 28.7 83.7 43 83.3C57.3 83 71.7 84 86 84.8C100.3 85.7 114.7 86.3 128.8 86.7C143 87 157 87 171.2 86.8C185.3 86.7 199.7 86.3 214 86.7C228.3 87 242.7 88 257 87.2C271.3 86.3 285.7 83.7 292.8 82.3L300 81L300 101L292.8 101C285.7 101 271.3 101 257 101C242.7 101 228.3 101 214 101C199.7 101 185.3 101 171.2 101C157 101 143 101 128.8 101C114.7 101 100.3 101 86 101C71.7 101 57.3 101 43 101C28.7 101 14.3 101 7.2 101L0 101Z" fill="#d53867"></path><path d="M0 92L7.2 91.7C14.3 91.3 28.7 90.7 43 90.2C57.3 89.7 71.7 89.3 86 90.2C100.3 91 114.7 93 128.8 93.7C143 94.3 157 93.7 171.2 92.8C185.3 92 199.7 91 214 90.5C228.3 90 242.7 90 257 90C271.3 90 285.7 90 292.8 90L300 90L300 101L292.8 101C285.7 101 271.3 101 257 101C242.7 101 228.3 101 214 101C199.7 101 185.3 101 171.2 101C157 101 143 101 128.8 101C114.7 101 100.3 101 86 101C71.7 101 57.3 101 43 101C28.7 101 14.3 101 7.2 101L0 101Z" fill="#c62368"></path></svg>