<svg id="visual" viewBox="0 0 300 100" width="300" height="100" xmlns="http://www.w3.org/2000/svg" xmlns:xlink="http://www.w3.org/1999/xlink" version="1.1"><g stroke-width="1" stroke-linejoin="bevel"><path d="M148 56L103 100L145 100Z" fill="#4b355c" stroke="#4b355c"></path><path d="M148 56L101 45L103 100Z" fill="#00101c" stroke="#00101c"></path><path d="M152 0L98 0L101 45Z" fill="#eb7459" stroke="#eb7459"></path><path d="M101 45L44 100L103 100Z" fill="#94456e" stroke="#94456e"></path><path d="M200 43L152 0L148 56Z" fill="#121e33" stroke="#121e33"></path><path d="M148 56L152 0L101 45Z" fill="#00101c" stroke="#00101c"></path><path d="M204 100L200 43L148 56Z" fill="#fcaf3c" stroke="#fcaf3c"></path><path d="M44 45L44 100L101 45Z" fill="#6f3d69" stroke="#6f3d69"></path><path d="M145 100L204 100L148 56Z" fill="#eb7459" stroke="#eb7459"></path><path d="M49 0L44 45L101 45Z" fill="#fcaf3c" stroke="#fcaf3c"></path><path d="M98 0L49 0L101 45Z" fill="#d55f65" stroke="#d55f65"></path><path d="M200 43L206 0L152 0Z" fill="#4b355c" stroke="#4b355c"></path><path d="M247 48L206 0L200 43Z" fill="#6f3d69" stroke="#6f3d69"></path><path d="M0 0L0 55L44 45Z" fill="#2b2a49" stroke="#2b2a49"></path><path d="M44 45L0 55L44 100Z" fill="#00101c" stroke="#00101c"></path><path d="M0 55L0 100L44 100Z" fill="#121e33" stroke="#121e33"></path><path d="M204 100L247 48L200 43Z" fill="#4b355c" stroke="#4b355c"></path><path d="M248 100L247 48L204 100Z" fill="#6f3d69" stroke="#6f3d69"></path><path d="M49 0L0 0L44 45Z" fill="#94456e" stroke="#94456e"></path><path d="M300 52L254 0L247 48Z" fill="#4b355c" stroke="#4b355c"></path><path d="M247 48L254 0L206 0Z" fill="#121e33" stroke="#121e33"></path><path d="M248 100L300 52L247 48Z" fill="#6f3d69" stroke="#6f3d69"></path><path d="M300 100L300 52L248 100Z" fill="#6f3d69" stroke="#6f3d69"></path><path d="M300 52L300 0L254 0Z" fill="#d55f65" stroke="#d55f65"></path></g></svg>