<svg id="visual" viewBox="0 0 300 100" width="300" height="100" xmlns="http://www.w3.org/2000/svg" xmlns:xlink="http://www.w3.org/1999/xlink" version="1.1"><rect x="0" y="0" width="300" height="100" fill="#001122"></rect><defs><linearGradient id="grad1_0" x1="66.7%" y1="0%" x2="100%" y2="100%"><stop offset="-10%" stop-color="#001122" stop-opacity="1"></stop><stop offset="110%" stop-color="#001122" stop-opacity="1"></stop></linearGradient></defs><defs><linearGradient id="grad2_0" x1="0%" y1="0%" x2="33.3%" y2="100%"><stop offset="-10%" stop-color="#001122" stop-opacity="1"></stop><stop offset="110%" stop-color="#001122" stop-opacity="1"></stop></linearGradient></defs><g transform="translate(300, 0)"><path d="M0 70C-9.7 68.9 -19.3 67.7 -26 62.8C-32.7 57.9 -36.4 49.2 -43.1 43.1C-49.9 37 -59.7 33.5 -64.7 26.8C-69.7 20 -69.8 10 -70 0L0 0Z" fill="#FBAE3C"></path></g><g transform="translate(0, 100)"><path d="M0 -70C6.5 -62.9 13.1 -55.9 22.2 -53.6C31.3 -51.3 43 -53.8 49.5 -49.5C56 -45.2 57.5 -34.2 60.1 -24.9C62.6 -15.5 66.3 -7.8 70 0L0 0Z" fill="#FBAE3C"></path></g></svg>