<svg width="100" height="100" fill="none" xmlns="http://www.w3.org/2000/svg" xmlns:xlink="http://www.w3.org/1999/xlink">
    <defs>
        <path d="m20 27-4-8v14l4-6Z" fill="#fff" id="d"/>
    </defs>
    <path d="m15 41-7-2H7v-1l45-19 39 9 1 11-30 27L6 52l6-2 3-9Z" fill="url(#a)"/>
    <path d="m20 27-4-8v14l4-6Z" fill="url(#b)"/>
    <path d="m20 27-4-8v14l4-6Z" fill="#000" style="mix-blend-mode:soft-light"/>
    <path d="m13 27 3-8v14l-3-6Z" fill="url(#c)"/>
    <g style="mix-blend-mode:soft-light">
        <use xlink:href="#d"/>
        <use style="mix-blend-mode:soft-light" xlink:href="#d"/>
        <path d="m13 27 3-8v14l-3-6Zm0 0h7-7Z" fill="#fff"/>
    </g>
    <path d="m8 51 1-12 51 11v14L8 51Z" fill="url(#e)"/>
    <path d="m8 51 1-12 51 11v14L8 51Z" fill="#fff" style="mix-blend-mode:soft-light"/>
    <path d="m30 33 4-2 36-1 10 3-25 9-25-9Z" fill="#000" fill-opacity=".1"/>
    <path d="M91 28 7 38l55 10 29-20Z" fill="url(#f)" style="mix-blend-mode:soft-light"/>
    <path d="m30 33 1-12 45-3v15l-21 7-25-7Z" fill="url(#g)"/>
    <path d="M31 23v-3l24 4 21-6v3l-21 7-24-5Z" fill="#000" fill-opacity=".3"/>
    <path d="m55 24-44-7 83-4-39 11Z" fill="url(#h)"/>
    <path d="m52 6 42 7-83 4L52 6Z" fill="url(#i)"/>
    <path d="M55 24v16l21-7V18l-21 6Z" fill="#000" style="mix-blend-mode:soft-light"/>
    <path d="m62 48 29-20 1 11-30 27V48Z" fill="#000" fill-opacity=".1"/>
    <path opacity=".5" d="m9 39 51 11v1L9 40v-1Z" fill="#000" fill-opacity=".2"/>
    <path d="M55 24 52 6l42 7-39 11Z" fill="#000" style="mix-blend-mode:overlay"/>
    <path d="m85 45-23 3v18l23-21Z" fill="url(#j)" style="mix-blend-mode:soft-light"/>
    <path d="m85 45-23 3v18l23-21Z" fill="url(#k)" style="mix-blend-mode:soft-light"/>
    <path d="M62 48 7 38v1l53 11v14L7 51l-1 1 56 14V48Z" fill="#fff" style="mix-blend-mode:soft-light"/>
    <path d="M91 28 75 46l10-1 7-6-1-11Z" fill="url(#l)"/>
    <path d="M91 28 62 48l13-2 16-18Z" fill="url(#m)"/>
    <path d="M91 28 62 48l13-2 16-18Z" fill="url(#n)" style="mix-blend-mode:soft-light"/>
    <path d="m62 48 29-20 1 11-30 27V48Z" fill="url(#o)" style="mix-blend-mode:soft-light"/>
    <path d="M91 28 75 46l10-1 7-6-1-11Z" fill="url(#P)"/>
    <path d="M91 28 62 48l13-2 16-18Z" fill="url(#Q)"/>
    <path d="M91 28 62 48l13-2 16-18Z" fill="url(#R)" style="mix-blend-mode:soft-light"/>
    <path d="m62 48 29-20 1 11-30 27V48Z" fill="url(#S)" style="mix-blend-mode:soft-light"/>
    <defs>
        <linearGradient id="a" x1="48.7" y1="32.5" x2="48.7" y2="65.8" gradientUnits="userSpaceOnUse">
            <stop stop-color="#BDF3FF"/>
            <stop offset="1" stop-color="#00CBF6"/>
        </linearGradient>
        <linearGradient id="b" x1="20.4" y1="28.7" x2="15.7" y2="25.6" gradientUnits="userSpaceOnUse">
            <stop stop-color="#BDF3FF"/>
            <stop offset="1" stop-color="#00CBF6"/>
        </linearGradient>
        <linearGradient id="c" x1="12.1" y1="24.6" x2="15.9" y2="31.1" gradientUnits="userSpaceOnUse">
            <stop stop-color="#BDF3FF"/>
            <stop offset="1" stop-color="#00CBF6"/>
        </linearGradient>
        <linearGradient id="e" x1="19.4" y1="41.7" x2="-.6" y2="85.4" gradientUnits="userSpaceOnUse">
            <stop stop-color="#BDF3FF"/>
            <stop offset="1" stop-color="#00CBF6"/>
        </linearGradient>
        <linearGradient id="f" x1="48.8" y1="33.6" x2="48.8" y2="48" gradientUnits="userSpaceOnUse">
            <stop/>
            <stop offset="1" stop-opacity="0"/>
        </linearGradient>
        <linearGradient id="g" x1="52.9" y1="24.3" x2="45.2" y2="36.6" gradientUnits="userSpaceOnUse">
            <stop stop-color="#00CBF6"/>
            <stop offset="1" stop-color="#BDF3FF"/>
        </linearGradient>
        <linearGradient id="h" x1="27.8" y1="19.7" x2="81.4" y2="19.8" gradientUnits="userSpaceOnUse">
            <stop stop-color="#00CBF6"/>
            <stop offset="1" stop-color="#BDF3FF"/>
        </linearGradient>
        <linearGradient id="i" x1="67.5" y1="7.4" x2="27.5" y2="15.5" gradientUnits="userSpaceOnUse">
            <stop stop-color="#00CBF6"/>
            <stop offset="1" stop-color="#BDF3FF"/>
        </linearGradient>
        <linearGradient id="j" x1="71.3" y1="54.4" x2="74" y2="43.3" gradientUnits="userSpaceOnUse">
            <stop stop-opacity="0"/>
            <stop offset="1"/>
        </linearGradient>
        <linearGradient id="k" x1="71.3" y1="54.4" x2="74" y2="43.3" gradientUnits="userSpaceOnUse">
            <stop stop-opacity="0"/>
            <stop offset="1"/>
        </linearGradient>
        <linearGradient id="l" x1="83.4" y1="33" x2="83.4" y2="46.1" gradientUnits="userSpaceOnUse">
            <stop stop-color="#BDF3FF"/>
            <stop offset="1" stop-color="#00CBF6"/>
        </linearGradient>
        <linearGradient id="m" x1="65.1" y1="44.9" x2="87.4" y2="40" gradientUnits="userSpaceOnUse">
            <stop stop-color="#BDF3FF"/>
            <stop offset="1" stop-color="#00CBF6"/>
        </linearGradient>
        <linearGradient id="n" x1="76.5" y1="33.5" x2="76.5" y2="47.9" gradientUnits="userSpaceOnUse">
            <stop stop-opacity="0"/>
            <stop offset="1"/>
        </linearGradient>
        <linearGradient id="o" x1="76.8" y1="38.7" x2="96.7" y2="33.5" gradientUnits="userSpaceOnUse">
            <stop stop-opacity="0"/>
            <stop offset="1"/>
        </linearGradient>
        <linearGradient id="p" x1="35.2" y1="26.1" x2="48" y2="43.6" gradientUnits="userSpaceOnUse">
            <stop stop-color="#fff" stop-opacity="0"/>
            <stop offset=".4" stop-color="#fff"/>
            <stop offset="1" stop-color="#fff" stop-opacity="0"/>
        </linearGradient>
        <linearGradient id="P" x1="83.4" y1="33" x2="83.4" y2="46.1" gradientUnits="userSpaceOnUse">
            <stop stop-color="#BDF3FF"/>
            <stop offset="1" stop-color="#00CBF6"/>
        </linearGradient>
        <linearGradient id="Q" x1="65.1" y1="44.9" x2="87.4" y2="40" gradientUnits="userSpaceOnUse">
            <stop stop-color="#BDF3FF"/>
            <stop offset="1" stop-color="#00CBF6"/>
        </linearGradient>
        <linearGradient id="R" x1="76.5" y1="33.5" x2="76.5" y2="47.9" gradientUnits="userSpaceOnUse">
            <stop stop-opacity="0"/>
            <stop offset="1"/>
        </linearGradient>
        <linearGradient id="S" x1="76.8" y1="38.7" x2="96.7" y2="33.5" gradientUnits="userSpaceOnUse">
            <stop stop-opacity="0"/>
            <stop offset="1"/>
        </linearGradient>
    </defs>
</svg>

